<svg xmlns="http://www.w3.org/2000/svg" xmlns:xlink="http://www.w3.org/1999/xlink" width="512" height="512" viewBox="0 0 512 512">
  <defs>
    <clipPath id="clip-path">
      <circle id="Ellipse_6" data-name="Ellipse 6" cx="256" cy="256" r="256" fill="#dd5f57" stroke="#707070" stroke-width="1"/>
    </clipPath>
    <clipPath id="clip-path-2">
      <rect width="240" height="240" fill="none"/>
    </clipPath>
  </defs>
  <g id="Groupe_de_masques_1" data-name="Groupe de masques 1" clip-path="url(#clip-path)">
    <g id="Ellipse_4" data-name="Ellipse 4" fill="#dd5f57" stroke="#707070" stroke-width="1">
      <circle cx="256" cy="256" r="256" stroke="none"/>
      <circle cx="256" cy="256" r="255.5" fill="none"/>
    </g>
    <g id="Rectangle_21" data-name="Rectangle 21" transform="translate(90 80)" fill="#fff" stroke="#25414d" stroke-width="20">
      <rect width="330" height="452" stroke="none"/>
      <rect x="10" y="10" width="310" height="432" fill="none"/>
    </g>
    <rect id="Rectangle_22" data-name="Rectangle 22" width="150" height="60" rx="20" transform="translate(180 60)" fill="#e9b845"/>
    <rect id="Rectangle_23" data-name="Rectangle 23" width="90" height="30" transform="translate(210 30)" fill="#e9b845"/>
    <rect id="Rectangle_24" data-name="Rectangle 24" width="90" height="15" transform="translate(210 45)" opacity="0.2"/>
    <g id="Grille_de_répétition_2" data-name="Grille de répétition 2" transform="translate(120 150)" clip-path="url(#clip-path-2)">
      <g transform="translate(-120 -150)">
        <g id="Rectangle_25" data-name="Rectangle 25" transform="translate(120 150)" fill="#fff" stroke="#25414d" stroke-width="7">
          <rect width="60" height="60" stroke="none"/>
          <rect x="3.5" y="3.5" width="53" height="53" fill="none"/>
        </g>
        <rect id="Rectangle_26" data-name="Rectangle 26" width="150" height="15" transform="translate(210 150)" fill="#25414d"/>
        <rect id="Rectangle_27" data-name="Rectangle 27" width="150" height="15" transform="translate(210 195)" fill="#25414d"/>
        <rect id="Rectangle_28" data-name="Rectangle 28" width="150" height="15" transform="translate(210 173)" fill="#25414d"/>
        <path id="Tracé_1" data-name="Tracé 1" d="M1580.2,637.5l9.227,17.8,35.174-34.5" transform="translate(-1444.6 -463.3)" fill="none" stroke="#75b4bf" stroke-width="8"/>
      </g>
      <g transform="translate(-120 -70)">
        <g id="Rectangle_25-2" data-name="Rectangle 25" transform="translate(120 150)" fill="#fff" stroke="#25414d" stroke-width="7">
          <rect width="60" height="60" stroke="none"/>
          <rect x="3.5" y="3.5" width="53" height="53" fill="none"/>
        </g>
        <rect id="Rectangle_26-2" data-name="Rectangle 26" width="150" height="15" transform="translate(210 150)" fill="#25414d"/>
        <rect id="Rectangle_27-2" data-name="Rectangle 27" width="150" height="15" transform="translate(210 195)" fill="#25414d"/>
        <rect id="Rectangle_28-2" data-name="Rectangle 28" width="150" height="15" transform="translate(210 173)" fill="#25414d"/>
        <path id="Tracé_1-2" data-name="Tracé 1" d="M1580.2,637.5l9.227,17.8,35.174-34.5" transform="translate(-1444.6 -463.3)" fill="none" stroke="#75b4bf" stroke-width="8"/>
      </g>
      <g transform="translate(-120 10)">
        <g id="Rectangle_25-3" data-name="Rectangle 25" transform="translate(120 150)" fill="#fff" stroke="#25414d" stroke-width="7">
          <rect width="60" height="60" stroke="none"/>
          <rect x="3.5" y="3.5" width="53" height="53" fill="none"/>
        </g>
        <rect id="Rectangle_26-3" data-name="Rectangle 26" width="150" height="15" transform="translate(210 150)" fill="#25414d"/>
        <rect id="Rectangle_27-3" data-name="Rectangle 27" width="150" height="15" transform="translate(210 195)" fill="#25414d"/>
        <rect id="Rectangle_28-3" data-name="Rectangle 28" width="150" height="15" transform="translate(210 173)" fill="#25414d"/>
        <path id="Tracé_1-3" data-name="Tracé 1" d="M1580.2,637.5l9.227,17.8,35.174-34.5" transform="translate(-1444.6 -463.3)" fill="none" stroke="#75b4bf" stroke-width="8"/>
      </g>
    </g>
  </g>
</svg>
